<?xml version="1.0" standalone="no"?><!DOCTYPE svg PUBLIC "-//W3C//DTD SVG 1.1//EN" "http://www.w3.org/Graphics/SVG/1.1/DTD/svg11.dtd"><svg class="icon" width="200px" height="200.00px" viewBox="0 0 1024 1024" version="1.1" xmlns="http://www.w3.org/2000/svg"><path fill="#333333" d="M225.28 735.232h573.44c11.264 0 20.48 9.216 20.48 20.48v40.96c0 11.264-9.216 20.48-20.48 20.48H225.28c-11.264 0-20.48-9.216-20.48-20.48v-40.96c0-11.264 9.216-20.48 20.48-20.48z m0-184.32h573.44c11.264 0 20.48 9.216 20.48 20.48v40.96c0 11.264-9.216 20.48-20.48 20.48H225.28c-11.264 0-20.48-9.216-20.48-20.48v-40.96c0-11.264 9.216-20.48 20.48-20.48z m364.544-184.32H798.72c11.264 0 20.48 9.216 20.48 20.48v40.96c0 11.264-9.216 20.48-20.48 20.48H589.824c-11.264 0-20.48-9.216-20.48-20.48v-40.96c0-11.264 9.216-20.48 20.48-20.48z m-102.4 88.064L390.144 215.04c-2.048-4.096-6.144-7.168-11.264-7.168h-73.728c-4.096 0-9.216 3.072-10.24 7.168L204.8 454.656c-1.024 4.096 1.024 10.24 7.168 10.24h47.104c4.096 0 9.216-4.096 10.24-8.192l18.432-51.2h113.664l20.48 51.2c1.024 4.096 6.144 8.192 10.24 8.192h47.104c6.144 0 9.216-5.12 8.192-10.24zM309.248 344.064l29.696-75.776h6.144l32.768 75.776h-68.608z" /></svg>